User Type,Username,Date,Text
[T],SiRsMoKeAlOt0420,2009-09-30T22:59Z,seed..
,shatru,2009-10-07T09:55Z,"It contains black big borders up n down & left n right. and also quality is not good enough


General
Complete name                    : F:\downloads\Ice Age III Dawn of the Dinosaurs.2009-L33t-DvDRiP\Ice Age III Dawn of the Dinosaurs.2009-L33t-DvDRiP.avi
Format                           : AVI
Format/Info                      : Audio Video Interleave
File size                        : 864 MiB
Duration                         : 1h 30mn
Overall bit rate                 : 1 341 Kbps
Writing application              : Lavf51.12.1

Video
ID                               : 0
Format                           : MPEG-4 Visual
Format profile                   : Simple@L1
Format settings, BVOP            : No
Format settings, QPel            : No
Format settings, GMC             : No warppoints
Format settings, Matrix          : Default (H.263)
Codec ID                         : DX50
Codec ID/Hint                    : DivX 5
Duration                         : 1h 30mn
Bit rate                         : 1 200 Kbps
Width                            : 720 pixels
Height                           : 480 pixels
Display aspect ratio             : 1.500
Frame rate                       : 23.976 fps
Standard                         : NTSC
Resolution                       : 24 bits
Colorimetry                      : 4:2:0
Scan type                        : Progressive
Bits/(Pixel*Frame)               : 0.145
Stream size                      : 773 MiB (90%)
Writing library                  : Lavc51.40.4

Audio
ID                               : 1
Format                           : MPEG Audio
Format version                   : Version 1
Format profile                   : Layer 3
Codec ID                         : 55
Codec ID/Hint                    : MP3
Duration                         : 1h 30mn
Bit rate mode                    : Constant
Bit rate                         : 128 Kbps
Channel(s)                       : 2 channels
Sampling rate                    : 48.0 KHz
Resolution                       : 16 bits
Stream size                      : 82.5 MiB (10%)
Alignment                        : Aligned on interleaves
Interleave, duration             : 24 ms (0.58 video frame)
Interleave, preload duration     : 24 ms
Writing library                  : LAME3.97
"
